<svg width="190" height="190" xmlns="http://www.w3.org/2000/svg">

 <g>
  <title>Layer 1</title>
  <path id="svg_1" fill-rule="nonzero" fill="#5d6330" d="m93.58534,53.36888l-3.9335,0l0,-7.49848l3.9335,0l0,7.49848zm-27.38332,0l0,-7.49848l11.45011,0l0,7.49848l-11.45011,0zm11.45011,23.44848l-11.45011,0l0,-11.44878l11.45011,0l0,11.44878zm-30.78883,-23.44848l0,-7.49848l7.33902,0l0,7.49848l-7.33902,0zm7.33902,23.44848l-7.33902,0l0,-11.44878l7.33902,0l0,11.44878zm0,15.77481l-7.33902,0l0,-3.77511l7.33902,0l0,3.77511zm-33.86075,-15.77481c-3.15592,0 -5.72386,-2.56794 -5.72386,-5.72492c0,-3.15592 2.56794,-5.72386 5.72386,-5.72386l14.52204,0l0,11.44878l-14.52204,0zm4.39776,-42.94693c-5.58093,0 -10.12161,-4.54069 -10.12161,-10.12295s4.54069,-10.12295 10.12161,-10.12295c5.58333,0 10.12401,4.54069 10.12401,10.12295l0,10.12295l-10.12401,0zm41.46243,-14.5207c0,-3.15699 2.56794,-5.72492 5.72492,-5.72492s5.72492,2.56794 5.72492,5.72492l0,14.5207l-11.45011,0l0.00027,-14.5207zm118.04932,5.17294l0,-11.9997l-90.666,0l0,21.34747l-3.9335,0l0,-14.5207c0,-9.77362 -7.95207,-17.72462 -17.72462,-17.72462c-9.77362,0 -17.72462,7.951 -17.72462,17.72462l0,14.5207l-7.33902,0l0,-10.12295c0,-12.1989 -9.92482,-22.12265 -22.12371,-22.12265c-12.19756,0 -22.12131,9.92375 -22.12131,22.12265c0,12.19756 9.92375,22.12265 22.12131,22.12265l10.12401,0l0,7.49848l-14.52204,0c-9.77256,0 -17.72356,7.951 -17.72356,17.72356c0,9.77362 7.951,17.72462 17.72356,17.72462l14.52204,0l0,3.77511l-21.34747,0l0,90.666l11.9997,0l0,-78.6663l9.34777,0l0,78.6663l11.9997,0l0,-78.6663l19.33872,0l0,-15.77481l23.44981,0l0,-23.44848l15.9332,0l0,-19.49818l78.6663,0l0,-11.9997l-78.6663,0l0,-9.34777l78.66603,0z"/>
  <path id="svg_2" fill-rule="nonzero" fill="#2d3314" d="m24.73933,14.82451c-4.91854,0 -8.92164,4.0031 -8.92164,8.92298s4.0031,8.92298 8.92164,8.92298l8.92404,0l0,-8.92298c0,-4.91988 -4.0031,-8.92298 -8.92404,-8.92298m10.12401,20.24589l-10.12401,0c-6.24331,0 -11.32158,-5.07934 -11.32158,-11.32292s5.07827,-11.32292 11.32158,-11.32292c6.24464,0 11.32398,5.07934 11.32398,11.32292l0,10.12295c0,0.66238 -0.53625,1.19997 -1.19997,1.19997m32.53839,-2.39994l9.05017,0l0,-13.32073c0,-2.4946 -2.02902,-4.52495 -4.52495,-4.52495c-2.4946,0 -4.52495,2.03035 -4.52495,4.52495l-0.00027,13.32073zm10.25014,2.39994l-11.45011,0a1.19997,-1.19997 0 0 0 -1.19997,-1.19997l0,-14.5207c0,-3.8183 3.10659,-6.92489 6.92489,-6.92489s6.92489,3.10659 6.92489,6.92489l0,14.5207c0,0.66238 -0.53625,1.19997 -1.19997,1.19997m-29.58886,17.09824l4.93908,0l0,-5.09854l-4.93908,0l0,5.09854zm6.13905,2.39994l-7.33902,0a1.19997,-1.19997 0 0 0 -1.19997,-1.19997l0,-7.49848c0,-0.66238 0.53625,-1.19997 1.19997,-1.19997l7.33902,0a1.19997,-1.19997 0 0 0 1.19997,1.19997l0,7.49848c0,0.66238 -0.53625,1.19997 -1.19997,1.19997m13.19967,-2.39994l9.05017,0l0,-5.09854l-9.05017,0l0,5.09854zm10.25014,2.39994l-11.45011,0a1.19997,-1.19997 0 0 0 -1.19997,-1.19997l0,-7.49848c0,-0.66238 0.53625,-1.19997 1.19997,-1.19997l11.45011,0a1.19997,-1.19997 0 0 0 1.19997,1.19997l0,7.49848c0,0.66238 -0.53625,1.19997 -1.19997,1.19997m13.19967,-2.39994l1.53356,0l0,-5.09854l-1.53356,0l0,5.09854zm2.73353,2.39994l-3.9335,0a1.19997,-1.19997 0 0 0 -1.19997,-1.19997l0,-7.49848c0,-0.66238 0.53625,-1.19997 1.19997,-1.19997l3.9335,0c0.66238,0 1.19997,0.53759 1.19997,1.19997l0,7.49848c0,0.66238 -0.53759,1.19997 -1.19997,1.19997m-73.24377,11.9997c-2.4946,0 -4.52389,2.02902 -4.52389,4.52389c0,2.49594 2.02902,4.52495 4.52389,4.52495l13.32207,0l0,-9.04884l-13.32207,0zm14.52204,11.44878l-14.52204,0c-3.81697,0 -6.92383,-3.10552 -6.92383,-6.92489c0,-3.81697 3.10659,-6.92383 6.92383,-6.92383l14.52204,0a1.19997,-1.19997 0 0 0 1.19997,1.19997l0,11.44878c0,0.66345 -0.53625,1.19997 -1.19997,1.19997m13.19967,-2.39994l4.93908,0l0,-9.04884l-4.93908,0l0,9.04884zm6.13905,2.39994l-7.33902,0a1.19864,-1.19864 0 0 0 -1.19997,-1.19997l0,-11.44878c0,-0.66238 0.53625,-1.19997 1.19997,-1.19997l7.33902,0a1.19997,-1.19997 0 0 0 1.19997,1.19997l0,11.44878c0,0.66345 -0.53625,1.19997 -1.19997,1.19997m13.19967,-2.39994l9.05017,0l0,-9.04884l-9.05017,0l0,9.04884zm10.25014,2.39994l-11.45011,0a1.19864,-1.19864 0 0 0 -1.19997,-1.19997l0,-11.44878c0,-0.66238 0.53625,-1.19997 1.19997,-1.19997l11.45011,0a1.19997,-1.19997 0 0 0 1.19997,1.19997l0,11.44878c0,0.66345 -0.53625,1.19997 -1.19997,1.19997m-29.58886,13.37487l4.93908,0l0,-1.37517l-4.93908,0l0,1.37517zm6.13905,2.39994l-7.33902,0a1.19864,-1.19864 0 0 0 -1.19997,-1.19997l0,-3.77511c0,-0.66238 0.53625,-1.19997 1.19997,-1.19997l7.33902,0a1.19997,-1.19997 0 0 0 1.19997,1.19997l0,3.77511c0,0.66345 -0.53625,1.19997 -1.19997,1.19997m-18.13875,88.26606l9.59976,0l0,-77.46633c0,-0.66238 0.53625,-1.19997 1.19997,-1.19997l18.13875,0l0,-14.57484c0,-0.66238 0.53625,-1.19997 1.19997,-1.19997l22.24984,0l0,-22.24851c0,-0.66238 0.53625,-1.19997 1.19997,-1.19997l14.73323,0l0,-18.29821c0,-0.66238 0.53625,-1.19997 1.19997,-1.19997l77.46633,0l0,-9.59976l-77.46633,0a1.19997,-1.19997 0 0 0 -1.19997,-1.19997l0,-9.34777c0,-0.66238 0.53625,-1.19997 1.19997,-1.19997l77.46633,0l0,-9.59976l-88.26606,0l0,20.1475c0,0.66238 -0.53759,1.19997 -1.19997,1.19997l-3.9335,0a1.19997,-1.19997 0 0 0 -1.19997,-1.19997l0,-14.5207c0,-9.11257 -7.41341,-16.52465 -16.52465,-16.52465s-16.52465,7.41208 -16.52465,16.52465l0,14.5207c0,0.66238 -0.53625,1.19997 -1.19997,1.19997l-7.33902,0a1.19997,-1.19997 0 0 0 -1.19997,-1.19997l0,-10.12295c0,-11.53651 -9.38617,-20.92268 -20.92374,-20.92268c-11.53651,0 -20.92134,9.38617 -20.92134,20.92268s9.38483,20.92268 20.92134,20.92268l10.12401,0a1.19997,-1.19997 0 0 0 1.19997,1.19997l0,7.49848c0,0.66238 -0.53625,1.19997 -1.19997,1.19997l-14.52204,0c-9.11017,0 -16.52359,7.41208 -16.52359,16.52359c0,9.11257 7.41341,16.52465 16.52359,16.52465l14.52204,0a1.19997,-1.19997 0 0 0 1.19997,1.19997l0,3.77511c0,0.66345 -0.53625,1.19997 -1.19997,1.19997l-20.1475,0l0,88.26606l9.59976,0l0,-77.46633c0,-0.66238 0.53625,-1.19997 1.19997,-1.19997l9.34777,0a1.19997,-1.19997 0 0 0 1.19997,1.19997l-0.00027,77.46633zm10.79973,2.39994l-11.9997,0a1.19997,-1.19997 0 0 0 -1.19997,-1.19997l0,-77.46633l-6.94783,0l0,77.46633c0,0.66238 -0.53625,1.19997 -1.19997,1.19997l-11.9997,0a1.19997,-1.19997 0 0 0 -1.19997,-1.19997l0,-90.666c0,-0.66238 0.53625,-1.19997 1.19997,-1.19997l20.1475,0l0,-1.37517l-13.32207,0c-10.43494,0 -18.92353,-8.48859 -18.92353,-18.92459c0,-10.43361 8.48859,-18.92353 18.92353,-18.92353l13.32207,0l0,-5.09854l-8.92404,0c-12.85888,0 -23.32128,-10.46241 -23.32128,-23.32262c0,-12.86128 10.46241,-23.32262 23.32128,-23.32262c12.86128,0 23.32368,10.46134 23.32368,23.32262l0,8.92298l4.93908,0l0,-13.32073c0,-10.43494 8.48859,-18.92459 18.92459,-18.92459c10.43494,0 18.92459,8.48965 18.92459,18.92459l0,13.32073l1.53356,0l0,-20.1475c0,-0.66238 0.53625,-1.19997 1.19997,-1.19997l90.666,0a1.19997,-1.19997 0 0 0 1.19997,1.19997l0,11.9997c0,0.66238 -0.53625,1.19997 -1.19997,1.19997l-77.46633,0l0,6.94783l77.46633,0a1.19997,-1.19997 0 0 0 1.19997,1.19997l0,11.9997c0,0.66238 -0.53625,1.19997 -1.19997,1.19997l-77.46633,0l0,18.29821c0,0.66238 -0.53759,1.19997 -1.19997,1.19997l-14.73323,0l0,22.24851c0,0.66345 -0.53625,1.19997 -1.19997,1.19997l-22.24984,0l0,14.57484c0,0.66345 -0.53625,1.19997 -1.19997,1.19997l-18.13875,0l0,77.46633c0,0.66238 -0.53625,1.19997 -1.19997,1.19997"/>
  <path id="svg_3" fill-rule="nonzero" fill="#2d3314" d="m46.86331,35.07041l-11.9997,0c-0.66345,0 -1.19997,-0.53759 -1.19997,-1.19997s0.53625,-1.19997 1.19997,-1.19997l11.9997,0c0.66345,0 1.19997,0.53759 1.19997,1.19997s-0.53625,1.19997 -1.19997,1.19997m0,11.9997l-11.9997,0c-0.66345,0 -1.19997,-0.53759 -1.19997,-1.19997s0.53625,-1.19997 1.19997,-1.19997l11.9997,0c0.66345,0 1.19997,0.53759 1.19997,1.19997s-0.53625,1.19997 -1.19997,1.19997m42.78853,-11.9997l-11.9997,0c-0.66345,0 -1.19997,-0.53759 -1.19997,-1.19997s0.53625,-1.19997 1.19997,-1.19997l11.9997,0c0.66345,0 1.19997,0.53759 1.19997,1.19997s-0.53625,1.19997 -1.19997,1.19997m0,11.9997l-11.9997,0c-0.66345,0 -1.19997,-0.53759 -1.19997,-1.19997s0.53625,-1.19997 1.19997,-1.19997l11.9997,0c0.66345,0 1.19997,0.53759 1.19997,1.19997s-0.53625,1.19997 -1.19997,1.19997m-23.44981,7.49848l-11.9997,0c-0.66345,0 -1.19997,-0.53759 -1.19997,-1.19997s0.53625,-1.19997 1.19997,-1.19997l11.9997,0c0.66345,0 1.19997,0.53759 1.19997,1.19997s-0.53625,1.19997 -1.19997,1.19997m0,11.9997l-11.9997,0c-0.66345,0 -1.19997,-0.53759 -1.19997,-1.19997s0.53625,-1.19997 1.19997,-1.19997l11.9997,0c0.66345,0 1.19997,0.53759 1.19997,1.19997s-0.53625,1.19997 -1.19997,1.19997m-19.33872,11.44878l-11.9997,0a1.19864,-1.19864 0 0 0 -1.19997,-1.19997c0,-0.66238 0.53625,-1.19997 1.19997,-1.19997l11.9997,0a1.19997,-1.19997 0 0 0 1.19997,1.19997c0,0.66345 -0.53625,1.19997 -1.19997,1.19997m0,11.9997l-11.9997,0a1.19864,-1.19864 0 0 0 -1.19997,-1.19997c0,-0.66238 0.53625,-1.19997 1.19997,-1.19997l11.9997,0a1.19997,-1.19997 0 0 0 1.19997,1.19997c0,0.66345 -0.53625,1.19997 -1.19997,1.19997m19.33872,-42.94693a1.19997,-1.19997 0 0 0 -1.19997,-1.19997l0,-11.9997c0,-0.66238 0.53625,-1.19997 1.19997,-1.19997s1.19997,0.53759 1.19997,1.19997l0,11.9997c0,0.66238 -0.53625,1.19997 -1.19997,1.19997m-11.9997,0a1.19997,-1.19997 0 0 0 -1.19997,-1.19997l0,-11.9997c0,-0.66238 0.53625,-1.19997 1.19997,-1.19997s1.19997,0.53759 1.19997,1.19997l0,11.9997c0,0.66238 -0.53625,1.19997 -1.19997,1.19997m35.44951,19.49818a1.19997,-1.19997 0 0 0 -1.19997,-1.19997l0,-11.9997c0,-0.66238 0.53625,-1.19997 1.19997,-1.19997s1.19997,0.53759 1.19997,1.19997l0,11.9997c0,0.66238 -0.53625,1.19997 -1.19997,1.19997m-11.9997,0a1.19997,-1.19997 0 0 0 -1.19997,-1.19997l0,-11.9997c0,-0.66238 0.53625,-1.19997 1.19997,-1.19997s1.19997,0.53759 1.19997,1.19997l0,11.9997c0,0.66238 -0.53625,1.19997 -1.19997,1.19997m-30.78883,0a1.19997,-1.19997 0 0 0 -1.19997,-1.19997l0,-11.9997c0,-0.66238 0.53625,-1.19997 1.19997,-1.19997s1.19997,0.53759 1.19997,1.19997l0,11.9997c0,0.66238 -0.53625,1.19997 -1.19997,1.19997m-11.9997,0a1.19997,-1.19997 0 0 0 -1.19997,-1.19997l0,-11.9997c0,-0.66238 0.53625,-1.19997 1.19997,-1.19997s1.19997,0.53759 1.19997,1.19997l0,11.9997c0,0.66238 -0.53625,1.19997 -1.19997,1.19997m11.9997,39.22329a1.19864,-1.19864 0 0 0 -1.19997,-1.19997l0,-11.9997c0,-0.66238 0.53625,-1.19997 1.19997,-1.19997s1.19997,0.53759 1.19997,1.19997l0,11.9997c0,0.66345 -0.53625,1.19997 -1.19997,1.19997m-11.9997,0a1.19864,-1.19864 0 0 0 -1.19997,-1.19997l0,-11.9997c0,-0.66238 0.53625,-1.19997 1.19997,-1.19997s1.19997,0.53759 1.19997,1.19997l0,11.9997c0,0.66345 -0.53625,1.19997 -1.19997,1.19997m31.33842,-15.77481a1.19864,-1.19864 0 0 0 -1.19997,-1.19997l0,-11.9997c0,-0.66238 0.53625,-1.19997 1.19997,-1.19997s1.19997,0.53759 1.19997,1.19997l0,11.9997c0,0.66345 -0.53625,1.19997 -1.19997,1.19997m-11.9997,0a1.19864,-1.19864 0 0 0 -1.19997,-1.19997l0,-11.9997c0,-0.66238 0.53625,-1.19997 1.19997,-1.19997s1.19997,0.53759 1.19997,1.19997l0,11.9997c0,0.66345 -0.53625,1.19997 -1.19997,1.19997m51.38272,-42.94693a1.19997,-1.19997 0 0 0 -1.19997,-1.19997l0,-11.9997c0,-0.66238 0.53625,-1.19997 1.19997,-1.19997c0.66238,0 1.19997,0.53759 1.19997,1.19997l0,11.9997c0,0.66238 -0.53759,1.19997 -1.19997,1.19997m-11.9997,0a1.19997,-1.19997 0 0 0 -1.19997,-1.19997l0,-11.9997c0,-0.66238 0.53625,-1.19997 1.19997,-1.19997c0.66238,0 1.19997,0.53759 1.19997,1.19997l0,11.9997c0,0.66238 -0.53759,1.19997 -1.19997,1.19997"/>
  <path id="svg_4" fill-rule="nonzero" fill="#e39e4d" d="m67.40199,35.07041l0,9.59976l24.98338,0l0,-9.59976l-24.98338,0zm115.64938,9.59976l0,-9.59976l-76.26636,0l0,9.59976l76.26636,0zm-137.38803,45.34687l-9.59976,0l0,92.04117l9.59976,0l0,-92.04117zm-9.59976,-14.39964l9.59976,0l0,-28.54729l-9.59976,0l0,28.54729zm16.93878,-30.94723l0,-9.59976l-28.26276,0c-6.24331,0 -11.32158,-5.07934 -11.32158,-11.32292s5.07827,-11.32292 11.32158,-11.32292c6.24464,0 11.32398,5.07934 11.32398,11.32292l0,8.92298l9.59976,0l0,-8.92298c0,-11.53651 -9.38617,-20.92268 -20.92374,-20.92268c-11.53651,0 -20.92134,9.38617 -20.92134,20.92268s9.38483,20.92268 20.92134,20.92268l28.26276,0z"/>
  <path id="svg_5" fill-rule="nonzero" fill="#2d3314" d="m80.53313,21.35848c-0.10906,2.05435 -0.1536,4.10736 -0.20026,6.16305c-0.02267,1.00664 -0.0456,2.01462 -0.0696,3.02152c-0.024,1.04157 -0.048,1.99062 0.23626,3.00099c0.10186,0.36106 0.62985,0.36106 0.73198,0c0.28426,-1.00797 0.26026,-1.96182 0.23626,-3.00099c-0.02267,-1.00664 -0.0456,-2.01462 -0.0696,-3.02152c-0.04667,-2.05542 -0.08986,-4.1087 -0.1992,-6.16305c-0.02267,-0.42826 -0.64318,-0.42826 -0.66585,0m3.05032,7.19022c-0.0528,0.77998 -0.108,1.55863 -0.1656,2.33861a6.93316,-6.93316 0 0 1 0.0024,1.16984c0.03467,0.39119 0.1248,0.77865 0.19786,1.16504c0.05627,0.30346 0.55679,0.30346 0.61438,0c0.072,-0.38639 0.1632,-0.77385 0.19786,-1.16504c0.03467,-0.38986 0.0312,-0.77865 0.0024,-1.16984c-0.05867,-0.77998 -0.11386,-1.55863 -0.1656,-2.33861c-0.02987,-0.44026 -0.65518,-0.44159 -0.68398,0m2.93379,2.14075c-0.0192,0.28666 -0.02747,0.57705 -0.0648,0.86158a15.73294,-15.73294 0 0 0 -0.1536,0.88904c-0.06107,0.32159 -0.0888,0.64905 -0.12346,0.97438c-0.0432,0.38986 0.05147,0.70078 0.27946,1.01384c0.20266,0.27706 0.54959,0.27706 0.75358,0c0.21706,-0.29999 0.32266,-0.60345 0.28319,-0.97918c-0.03467,-0.33706 -0.06347,-0.67678 -0.1272,-1.00904a20.53282,-20.53282 0 0 0 -0.1488,-0.85545c-0.0432,-0.29519 -0.04907,-0.59759 -0.0696,-0.89518c-0.0288,-0.40319 -0.59999,-0.40426 -0.62878,0m-1.97995,6.8193c1.42183,0.0624 2.83913,0.21226 4.26096,0.26159c0.69598,0.02507 1.39197,0.05147 2.08901,0.06107c0.71998,0.0096 1.45436,0.0624 2.17195,-0.012c1.01517,-0.10426 0.82185,-1.59596 -0.1872,-1.38583a5.06654,-5.06654 0 0 1 -0.52905,0.14266c-0.52905,0.17146 -0.53039,0.90344 0,1.07624a5.06654,-5.06654 0 0 1 0.52905,0.1416l0.1872,-1.38477c-0.71758,-0.0744 -1.45196,-0.02267 -2.17195,-0.012c-0.69705,0.0096 -1.39303,0.036 -2.08901,0.06107c-1.42183,0.04907 -2.83913,0.19786 -4.26096,0.26159c-0.50639,0.02267 -0.50745,0.76425 0,0.78825m3.21219,3.64311c0.79678,0.0312 1.58983,0.1128 2.38421,0.1848c0.38639,0.03467 0.78105,0.096 1.16984,0.0936c0.44986,-0.0024 0.83385,-0.1056 1.23597,-0.29999c0.25919,-0.1272 0.25919,-0.56265 0,-0.68878c-0.38639,-0.1872 -0.75838,-0.29386 -1.19144,-0.29999c-0.40319,-0.00587 -0.81358,0.05627 -1.21437,0.09226c-0.79438,0.07306 -1.58743,0.15466 -2.38421,0.18586c-0.47039,0.01787 -0.47145,0.71278 0,0.73198m1.83462,-1.48796c0.53865,0.02267 1.07864,0.0336 1.61623,0.07786c0.53625,0.0432 1.07624,0.108 1.61516,0.12346c0.31786,0.00827 0.62398,-0.28666 0.60958,-0.60958s-0.26879,-0.61918 -0.60958,-0.60958c-0.53865,0.01547 -1.07864,0.08026 -1.61516,0.1248c-0.53759,0.0432 -1.07757,0.05387 -1.61623,0.0768c-0.52425,0.02267 -0.52425,0.79305 0,0.81598m-1.68236,4.38949c0.92984,0.04427 1.85515,0.1392 2.78393,0.1896c0.46426,0.02507 0.92744,0.05867 1.39197,0.07306c0.50399,0.01787 0.96238,0.04667 1.39543,-0.25199c0.27706,-0.19066 0.27706,-0.55305 0,-0.74398c-0.43199,-0.29866 -0.89278,-0.26986 -1.39543,-0.25306c-0.46426,0.01547 -0.92744,0.04907 -1.39197,0.0744c-0.92878,0.0504 -1.85382,0.14506 -2.78393,0.1896c-0.46426,0.0216 -0.46426,0.69945 0,0.72238m24.93404,-6.67903c-2.33754,-0.0888 -4.70148,-0.18 -7.03662,-0.0096c-0.46426,0.03467 -0.46426,0.68878 0,0.72238c2.33514,0.17146 4.69908,0.0792 7.03662,-0.0096c0.45226,-0.0168 0.45226,-0.68505 0,-0.70318m-1.22397,2.02182c-0.95864,-0.12 -1.91622,-0.23039 -2.88473,-0.25439c-0.48345,-0.01307 -0.96238,-0.02267 -1.44343,0.02027c-0.47865,0.0432 -0.95144,0.1344 -1.42423,0.21359c-0.33599,0.05627 -0.33599,0.62158 0,0.67785c0.47279,0.0792 0.94558,0.1704 1.42423,0.21359c0.48105,0.0432 0.95998,0.0336 1.44343,0.02027c0.96824,-0.024 1.92582,-0.1344 2.88473,-0.25439c0.40906,-0.0504 0.41039,-0.58665 0,-0.63705m-1.83595,2.55834c-0.66345,-0.07546 -1.31997,-0.1776 -1.98715,-0.22906c-0.67545,-0.0528 -1.46396,-0.16186 -2.08661,0.1608c-0.32399,0.168 -0.32399,0.69118 0,0.85785c0.62398,0.32266 1.41116,0.21466 2.08661,0.1608c0.66718,-0.05147 1.32343,-0.1536 1.98715,-0.22906c0.46319,-0.05147 0.46426,-0.66958 0,-0.72105m-38.54784,-4.85748c-0.61305,-0.06 -1.21917,-0.10186 -1.83595,-0.12c-0.31546,-0.00827 -0.62398,-0.00107 -0.93598,0.048c-0.29999,0.04667 -0.59865,0.0984 -0.89864,0.1368c-0.33119,0.04187 -0.33119,0.47385 0,0.51599c0.29999,0.0384 0.59865,0.08986 0.89864,0.1368c0.31199,0.04907 0.62025,0.0576 0.93598,0.048c0.61678,-0.01787 1.22264,-0.05867 1.83595,-0.11866a0.32346,-0.32346 0 0 1 0,-0.64665m0.61198,2.6866c-0.83145,-0.04427 -1.66316,-0.09226 -2.49594,-0.12346c-0.41519,-0.01547 -0.83278,-0.0576 -1.24664,-0.02027c-0.42479,0.03707 -0.82558,0.12 -1.23944,0.21706c-0.31199,0.0744 -0.31306,0.55919 0,0.63225c0.41386,0.0984 0.81465,0.18106 1.23944,0.21839c0.41386,0.036 0.83145,-0.00587 1.24664,-0.0216c0.83278,-0.02987 1.66423,-0.07786 2.49594,-0.12346c0.50025,-0.02747 0.50159,-0.74985 0,-0.77865m-2.14181,2.34714c-0.44986,-0.05627 -0.89864,-0.12346 -1.35117,-0.14506c-0.22319,-0.01067 -0.45466,-0.04187 -0.67678,-0.03227c-0.1176,0.00347 -0.27599,0.0192 -0.38879,0.04907c-0.12,0.0336 -0.24586,0.10906 -0.36106,0.16186c-0.22906,0.1056 -0.22906,0.50159 0,0.60718c0.11146,0.05147 0.24346,0.13546 0.36106,0.16186a2.26661,-2.26661 0 0 1 0.38879,0.0504c0.22319,0.00827 0.45359,-0.0216 0.67678,-0.0336c0.45226,-0.0216 0.90104,-0.0888 1.35117,-0.14506c0.18106,-0.0216 0.33839,-0.1392 0.33839,-0.33706c0,-0.20026 -0.156,-0.31546 -0.33839,-0.33706m-26.00442,-4.96654c1.66316,0.072 3.32738,0.16426 4.99188,0.21599c1.63676,0.0504 3.30472,0.18826 4.91268,-0.156c0.41146,-0.08746 0.41146,-0.74398 0,-0.83145c-1.60663,-0.34426 -3.27698,-0.20986 -4.91268,-0.156c-1.66423,0.0552 -3.32872,0.144 -4.99188,0.21599c-0.45839,0.0192 -0.45839,0.69225 0,0.71145m4.58975,1.80342c1.01757,0.0528 2.02555,0.19546 3.04179,0.26746c0.49679,0.036 0.99358,0.0672 1.49143,0.0888c0.53385,0.02267 1.06664,0.024 1.57676,-0.156c0.51465,-0.18106 0.51465,-0.86638 0,-1.04877c-0.50985,-0.18 -1.04264,-0.1776 -1.57676,-0.15466c-0.49785,0.02027 -0.99464,0.05147 -1.49143,0.08746c-1.01624,0.07306 -2.02422,0.21466 -3.04179,0.26879c-0.41626,0.0216 -0.41759,0.62398 0,0.64665m-0.45946,3.19299c0.98024,0.0336 1.96555,0.06826 2.94099,0.17386c0.48105,0.05147 0.95998,0.09466 1.44236,0.1296c0.54239,0.03947 1.02344,0.07066 1.51063,-0.20746c0.30106,-0.1728 0.30106,-0.62878 0,-0.80158c-0.46905,-0.26879 -0.93118,-0.24826 -1.45543,-0.21119a41.59896,-41.59896 0 0 1 -1.49756,0.1344c-0.97544,0.10426 -1.96075,0.1392 -2.94099,0.1728c-0.39119,0.01307 -0.39226,0.59625 0,0.60958m-10.16001,-14.98869c-0.0456,0.97918 -0.0936,1.95835 -0.12826,2.93859c-0.03467,0.97304 -0.14746,1.98955 0.0504,2.95059c0.29866,-0.08266 0.59759,-0.16426 0.89624,-0.24719a2.6666,-2.6666 0 0 1 -0.11386,-0.38159c-0.11866,-0.32879 -0.54959,-0.32879 -0.66825,0a2.93326,-2.93326 0 0 1 -0.11386,0.38159c-0.12,0.58425 0.77518,0.83278 0.89624,0.24719c0.19786,-0.96104 0.08506,-1.97755 0.0504,-2.95059c-0.03467,-0.98024 -0.08266,-1.95942 -0.12826,-2.93859c-0.0216,-0.47759 -0.71758,-0.47759 -0.74025,0m2.4994,-4.58975c-0.0624,1.81062 -0.12586,3.62018 -0.156,5.43213c-0.01547,0.88798 -0.02987,1.77596 -0.0456,2.66393c-0.012,0.74638 -0.22799,1.80342 0.25199,2.42154c0.1152,0.1488 0.42106,0.14746 0.53625,0c0.46426,-0.59999 0.26506,-1.59596 0.25306,-2.31834l-0.04667,-2.76713c-0.0312,-1.81195 -0.0936,-3.62151 -0.156,-5.43213c-0.0144,-0.40906 -0.62398,-0.41039 -0.63705,0m2.16475,4.74228c-0.04187,0.97438 -0.08266,1.94875 -0.1248,2.92313a94.39764,-94.39764 0 0 1 -0.04907,1.43143c-0.0144,0.48345 -0.0984,1.01277 -0.04187,1.49143c0.07786,0.65518 0.94424,0.65625 1.02237,0c0.05387,-0.45946 -0.0264,-0.96718 -0.03947,-1.43143a102.6641,-102.6641 0 0 1 -0.05147,-1.49143c-0.04187,-0.97438 -0.08266,-1.94875 -0.1248,-2.92313c-0.01547,-0.38026 -0.57465,-0.38026 -0.59039,0m-3.69217,30.5931c0.1032,-1.97862 0.22799,-3.94657 0.25199,-5.92892c0.0216,-1.92715 0.21946,-3.90577 -0.15466,-5.80412c-0.07546,-0.38986 -0.70905,-0.38986 -0.78585,0c-0.37306,1.89835 -0.17626,3.87697 -0.15466,5.80412c0.024,1.98235 0.1488,3.9503 0.25199,5.92892c0.02027,0.38026 0.57119,0.38026 0.59145,0m2.46581,-3.9767c0.1128,-1.27543 0.21946,-2.5426 0.26746,-3.82177c0.02267,-0.63465 0.0648,-1.27437 0.06107,-1.91035c-0.0024,-0.63598 -0.14506,-1.24557 -0.29039,-1.86102c-0.0816,-0.34799 -0.62265,-0.34799 -0.70558,0c-0.144,0.61545 -0.29039,1.22637 -0.29039,1.86102c0,0.63598 0.0384,1.27543 0.0624,1.91035c0.048,1.27917 0.15466,2.54634 0.26639,3.82177c0.036,0.40319 0.59279,0.40426 0.62878,0m2.39754,0.76425c0.06826,-1.45436 0.17626,-2.91113 0.20879,-4.36656c0.03227,-1.42796 0.19546,-2.92899 -0.21466,-4.31269c-0.12,-0.40559 -0.70185,-0.40559 -0.82185,0c-0.41146,1.38343 -0.24719,2.88473 -0.21466,4.31269c0.03227,1.45543 0.14026,2.91219 0.20879,4.36656c0.02507,0.53625 0.80878,0.53759 0.83385,0m22.37464,2.16821c1.93435,0.0648 3.8687,0.1704 5.80306,0.24106c0.95144,0.03467 1.89702,0.1464 2.84633,0.1968c0.92744,0.04907 1.95702,0.15946 2.8162,-0.26026c0.38506,-0.18826 0.38506,-0.83145 0,-1.01997c-0.83038,-0.40666 -1.80955,-0.30826 -2.70713,-0.26399c-0.98638,0.048 -1.96795,0.1632 -2.95539,0.20026c-1.93435,0.07066 -3.8687,0.17626 -5.80306,0.24106c-0.42719,0.0144 -0.42826,0.65038 0,0.66478m5.20174,2.7082c1.00797,0.048 2.01115,0.1656 3.01779,0.22079c0.49305,0.02747 0.98638,0.05387 1.47943,0.06c0.53385,0.00827 1.06664,0.02507 1.58503,-0.1248q-0.16346,-0.59545 -0.32879,-1.19277l-0.37786,0.1224c-0.46666,0.1488 -0.46799,0.79918 0,0.94904q0.18906,0.05947 0.37786,0.12106c0.75705,0.24239 1.09437,-0.97064 0.32879,-1.19277c-0.51839,-0.14986 -1.05117,-0.132 -1.58503,-0.1248c-0.49305,0.00587 -0.98638,0.03227 -1.47943,0.06c-1.00664,0.05627 -2.00982,0.1728 -3.01779,0.22079c-0.56745,0.0264 -0.56745,0.85438 0,0.88078m1.83462,2.41061c0.89384,0.02267 1.78182,0.1344 2.67353,0.1968c0.42719,0.02987 0.85785,0.04427 1.28637,0.0648c0.52905,0.0264 1.01037,0.0456 1.43623,-0.31679c0.192,-0.1632 0.19066,-0.53385 0,-0.69598c-0.42586,-0.36239 -0.90718,-0.34426 -1.43623,-0.31786c-0.42826,0.0216 -0.85918,0.03467 -1.28637,0.0648c-0.89144,0.06347 -1.77942,0.1752 -2.67353,0.19786c-0.51839,0.01307 -0.51945,0.79305 0,0.80638m21.72186,-5.52466c-1.47703,-0.0672 -2.95673,-0.20986 -4.43616,-0.19306c-0.73545,0.0096 -0.73678,1.13517 0,1.14477c1.47943,0.0168 2.95913,-0.12586 4.43616,-0.19306c0.48825,-0.0216 0.48959,-0.73678 0,-0.75838m4.89454,1.90075a107.73064,-107.73064 0 0 0 -5.08654,-0.22666c-0.83145,-0.0552 -1.66183,-0.1032 -2.4946,-0.14026c-0.41519,-0.0192 -0.83278,-0.04907 -1.24797,-0.05627c-0.1872,-0.0024 -0.39466,-0.0192 -0.57839,0.0312c-0.23039,0.0648 -0.37439,0.25919 -0.58079,0.36586c-0.25679,0.1344 -0.25679,0.54585 0,0.68025c0.17866,0.0936 0.30826,0.25066 0.49305,0.32879c0.20879,0.0888 0.44266,0.07306 0.66585,0.06826c0.38399,-0.00827 0.76798,-0.03467 1.15197,-0.05147c0.86505,-0.0384 1.72662,-0.08746 2.5906,-0.14506c1.69196,-0.11386 3.39218,-0.192 5.08654,-0.22666c0.40426,-0.0072 0.40559,-0.61918 0,-0.62745m-3.21219,2.53434l-3.13539,-0.13306c-0.51119,-0.0216 -1.02584,-0.0312 -1.53703,-0.06587c-0.50639,-0.03467 -1.16264,-0.21466 -1.64876,-0.05147a0.65972,-0.65972 0 0 1 0,1.26104c0.48959,0.16426 1.13997,-0.01787 1.64876,-0.0504c0.51119,-0.0336 1.02477,-0.0456 1.53703,-0.06587c1.04504,-0.04427 2.09035,-0.08986 3.13539,-0.1344c0.48825,-0.02027 0.48959,-0.73785 0,-0.75945m-25.08657,19.05312c-0.78105,-0.05627 -1.55756,-0.132 -2.33994,-0.168c-0.38159,-0.0168 -0.76558,-0.00827 -1.14717,-0.0096c-0.40666,-0.00107 -0.79305,0.07786 -1.19037,0.15226c-0.31786,0.05867 -0.31786,0.58185 0,0.64078c0.39706,0.0744 0.78478,0.1536 1.19037,0.15226c0.38159,-0.00107 0.76558,0.0072 1.14717,-0.01067c0.78238,-0.03467 1.55863,-0.1104 2.33994,-0.16666c0.37919,-0.02747 0.38026,-0.56265 0,-0.59039m5.35427,2.39141c-1.63196,-0.03707 -3.26392,-0.072 -4.89454,-0.11626c-0.80025,-0.0216 -1.60076,-0.05147 -2.39994,-0.08506c-0.38399,-0.0168 -0.76798,-0.0312 -1.15197,-0.04907c-0.43786,-0.0216 -0.88424,-0.0984 -1.31143,0.02027c-0.57359,0.1584 -0.57465,1.00424 0,1.16264c0.40079,0.11146 0.80505,0.0456 1.21544,0.02507c0.41626,-0.02027 0.83145,-0.036 1.24797,-0.0528c0.79918,-0.03467 1.59943,-0.0648 2.39994,-0.0864c1.63063,-0.04427 3.26259,-0.0792 4.89454,-0.1152c0.45226,-0.01067 0.45226,-0.69358 0,-0.70318m-2.6002,3.20739c-1.19277,-0.02507 -2.38421,-0.11866 -3.57698,-0.156c-0.58425,-0.0192 -1.16984,-0.03707 -1.75436,-0.05627c-0.29146,-0.0096 -0.58665,-0.0312 -0.87704,-0.02747c-0.36826,0.0048 -0.54585,0.1104 -0.86398,0.27226c-0.24479,0.12346 -0.24479,0.52319 0,0.64665c0.31919,0.1632 0.48585,0.27119 0.86398,0.27226c0.26879,0.00107 0.53999,-0.0168 0.80985,-0.02507l1.82155,-0.0576c1.19277,-0.0384 2.38421,-0.132 3.57698,-0.15706c0.45839,-0.00827 0.45839,-0.70185 0,-0.71145m-27.22839,-3.85777c1.11837,0.0792 2.23674,0.1584 3.35272,0.26506c1.09917,0.1056 2.29541,0.18346 3.36472,-0.1344c0.49785,-0.14746 0.49919,-0.86398 0,-1.01277c-1.06904,-0.31679 -2.26554,-0.23866 -3.36472,-0.13306c-1.11597,0.10666 -2.23434,0.1848 -3.35272,0.26506c-0.48239,0.0336 -0.48345,0.71518 0,0.74985m1.68236,2.4706c0.90718,0.0648 1.80582,0.1632 2.7154,0.19306c0.45226,0.0144 0.90584,0.0384 1.35703,0.0312c0.46905,-0.0072 0.91918,-0.09226 1.37863,-0.16906c-0.04187,-0.30826 -0.08266,-0.61545 -0.1248,-0.92398q-0.21599,0.0248 -0.43199,0.048c-0.54105,0.06107 -0.54239,0.78345 0,0.84345c0.144,0.0168 0.28799,0.03227 0.43199,0.04907c0.52185,0.0576 0.64665,-0.83625 0.1248,-0.92398c-0.45946,-0.0768 -0.90958,-0.1632 -1.37863,-0.16906c-0.45119,-0.00587 -0.90478,0.0168 -1.35703,0.0312c-0.90958,0.02987 -1.80822,0.12826 -2.7154,0.19306c-0.51225,0.036 -0.51225,0.76078 0,0.79678m2.29434,1.91515l1.09197,0.0576l0.27839,0.0144c0.11866,0.00587 0.23866,-0.0192 0.35519,-0.0384c0.1752,-0.02987 0.34666,-0.0984 0.51599,-0.14986c0.35626,-0.1104 0.35626,-0.61305 0,-0.72345c-0.16906,-0.05147 -0.34079,-0.12 -0.51599,-0.1488c-0.11626,-0.02027 -0.23519,-0.0456 -0.35519,-0.0384l-0.27839,0.0144c-0.36346,0.0192 -0.72718,0.03707 -1.09197,0.05627c-0.24959,0.01307 -0.48959,0.21119 -0.47759,0.47865c0.012,0.26986 0.20986,0.46319 0.47759,0.47759m5.36493,-37.03827q-0.02293,0.96531 -0.04427,1.92822q-0.01227,0.48239 -0.02267,0.96478c-0.0072,0.32746 -0.036,0.65998 0.01547,0.98504c0.072,0.45226 0.85065,0.25306 0.69358,-0.192c-0.0456,-0.12826 -0.07546,-0.25439 -0.1032,-0.38746c-0.0504,-0.24106 -0.43679,-0.24106 -0.48825,0a2.93326,-2.93326 0 0 0 -0.10186,0.38746c-0.15706,0.44399 0.62158,0.64558 0.69358,0.192c0.05147,-0.32639 0.02267,-0.65758 0.01547,-0.98504q-0.012,-0.48239 -0.02267,-0.96478c-0.0144,-0.64185 -0.02987,-1.28503 -0.04427,-1.92822c-0.00827,-0.37919 -0.58185,-0.37919 -0.59039,0m2.10341,-3.67057c-0.10666,2.29781 -0.23999,4.58869 -0.03707,6.88303c0.04187,0.47625 0.69838,0.47759 0.74025,0c0.20266,-2.29434 0.0696,-4.58495 -0.03707,-6.88303c-0.02027,-0.42826 -0.64558,-0.42826 -0.66585,0m3.03592,2.44794c-0.0408,0.84718 -0.0792,1.69542 -0.11626,2.5426c-0.01787,0.41626 -0.036,0.83145 -0.0552,1.24797c-0.0192,0.45119 -0.04187,0.89624 0.20399,1.29357a0.37946,-0.37946 0 0 1 0.64798,0c0.23759,-0.38266 0.22559,-0.80985 0.20639,-1.24557l-0.0576,-1.29597q-0.0552,-1.27117 -0.11626,-2.5426c-0.0216,-0.45839 -0.68985,-0.45946 -0.71278,0m-2.485,26.76893c0.0696,-1.50716 0.15226,-3.01432 0.1848,-4.52255c0.01547,-0.75358 0.03467,-1.50716 0.04667,-2.26181c0.01307,-0.74158 -0.10186,-1.46263 -0.21839,-2.19355c-0.06,-0.38026 -0.70665,-0.38026 -0.76798,0c-0.11626,0.73065 -0.23146,1.45196 -0.21839,2.19355c0.01307,0.75465 0.0312,1.50823 0.048,2.26181c0.0312,1.50823 0.11386,3.01539 0.18346,4.52255c0.02267,0.47625 0.71865,0.47759 0.74158,0m2.809,-3.67057c0.1056,-0.98744 0.1944,-1.96902 0.21839,-2.96393c0.012,-0.49199 0.0336,-0.98878 0.0216,-1.48076c-0.012,-0.50639 -0.1104,-0.99838 -0.22799,-1.48903c-0.10426,-0.43306 -0.77278,-0.43306 -0.87704,0c-0.1176,0.48959 -0.21599,0.98264 -0.22799,1.48903c-0.012,0.49199 0.01067,0.98878 0.02267,1.48076c0.024,0.99464 0.1128,1.97515 0.21706,2.96393c0.05867,0.54719 0.79438,0.54825 0.85305,0m-35.30312,-12.39196c1.40396,0.0576 2.80793,0.1272 4.21056,0.20159c0.70185,0.03707 1.40396,0.0744 2.10581,0.108c0.72958,0.03467 1.35223,-0.0072 2.05915,-0.19306c0.41519,-0.1104 0.41519,-0.73198 0,-0.84105c-0.70558,-0.18586 -1.33063,-0.22799 -2.05915,-0.19306c-0.70185,0.03227 -1.40396,0.0696 -2.10581,0.10666c-1.40263,0.0744 -2.8066,0.14506 -4.21056,0.20159c-0.39226,0.0168 -0.39226,0.59385 0,0.60958m2.90633,2.18395c0.87464,0.0408 1.74822,0.1176 2.62313,0.1608c0.42826,0.0216 0.85785,0.036 1.28637,0.05387c0.49199,0.02027 0.89758,0.024 1.34397,-0.20986c0.26639,-0.1392 0.26639,-0.56505 0,-0.70425c-0.42959,-0.22426 -0.81945,-0.23039 -1.29463,-0.21119c-0.44506,0.0192 -0.89038,0.0336 -1.33543,0.0552c-0.87464,0.04427 -1.74822,0.12106 -2.62313,0.16186c-0.44639,0.02027 -0.44639,0.67305 0,0.69358m24.93404,-3.50871c-1.11357,-0.0312 -2.22581,-0.06347 -3.33832,-0.09466c-0.54585,-0.01547 -1.09197,-0.01547 -1.63783,-0.0216c-0.44399,-0.00347 -1.31757,-0.1848 -1.53943,0.32399q0.11893,-0.09013 0.23759,-0.1824l-0.23146,0.07546c-0.30239,0.0984 -0.30239,0.51599 0,0.61438l0.23146,0.07546q-0.11893,-0.09013 -0.23759,-0.1824c0.21706,0.49919 1.04157,0.32986 1.47596,0.32506c0.56745,-0.00587 1.13517,-0.00587 1.70156,-0.0216c1.11224,-0.03227 2.22474,-0.06347 3.33832,-0.096c0.52425,-0.0144 0.52559,-0.80025 0,-0.81598m0.91784,2.653c-1.35223,-0.05387 -2.7034,-0.13546 -4.0559,-0.1608l-2.02795,-0.03947c-0.65278,-0.012 -1.37757,-0.1128 -2.01942,0.01787c-0.53145,0.10906 -0.53145,0.96718 0,1.07624c0.64318,0.13066 1.36557,0.02987 2.01942,0.01787l2.02795,-0.03947c1.35223,-0.0264 2.7034,-0.10666 4.0559,-0.1608c0.45706,-0.01787 0.45839,-0.69358 0,-0.71145m-16.44306,39.82221c0.09466,-1.80955 0.18826,-3.61538 0.24106,-5.42626c0.0264,-0.87118 0.0288,-1.74102 0.0336,-2.6122c0.00347,-0.46905 0.0144,-0.93838 0.0096,-1.40743c-0.00347,-0.42826 -0.01307,-0.81838 -0.33359,-1.13757c-0.18106,-0.18106 -0.48825,-0.18106 -0.66958,0c-0.32159,0.32159 -0.32746,0.70558 -0.33359,1.13757c-0.00587,0.46905 0.00587,0.93838 0.0096,1.40743c0.0048,0.87118 0.0072,1.74102 0.0336,2.6122c0.0528,1.81062 0.1464,3.61671 0.24106,5.42626c0.02507,0.49305 0.74265,0.49439 0.76798,0m1.76156,1.22264c0.06107,-1.99675 0.18826,-3.9911 0.28186,-5.98652c0.0456,-0.97784 0.05387,-1.95702 0.0744,-2.93513c0.0192,-0.95864 0.1632,-2.04102 -0.14266,-2.96259c-0.34906,0.09706 -0.69705,0.19306 -1.04637,0.28906q0.0632,0.19253 0.1248,0.38506c0.1272,0.39226 0.66958,0.39226 0.79545,0l0.12586,-0.38506c0.21466,-0.66718 -0.82665,-0.94798 -1.04637,-0.28906c-0.30719,0.92398 -0.16186,2.00262 -0.14266,2.96259c0.0192,0.97784 0.0288,1.95702 0.0744,2.93513c0.09226,1.99542 0.22079,3.98977 0.28186,5.98652c0.012,0.39839 0.60585,0.39946 0.61918,0m-1.40743,-30.13471c-0.04667,1.95222 -0.22906,3.9503 0.07066,5.88572c0.03947,0.25919 0.48345,0.25919 0.52425,0c0.29999,-1.93542 0.11626,-3.9335 0.07066,-5.88572c-0.01067,-0.42719 -0.65518,-0.42826 -0.66585,0m2.6146,1.22397c-0.0264,0.74985 -0.0528,1.49863 -0.07786,2.24874c-0.0264,0.74265 -0.10426,1.50716 -0.0528,2.24874c0.0384,0.57839 0.86025,0.57945 0.89998,0c0.0504,-0.74158 -0.02747,-1.50583 -0.0528,-2.24874l-0.0792,-2.24874c-0.0144,-0.41039 -0.62265,-0.41039 -0.63705,0m2.78393,24.62818c0.08746,-1.19757 0.18346,-2.38661 0.23146,-3.58658c0.048,-1.19757 0.11386,-2.38794 -0.1344,-3.56631c-0.0888,-0.41519 -0.75358,-0.41519 -0.84105,0c-0.24959,1.17704 -0.18346,2.36874 -0.13546,3.56631c0.048,1.19997 0.14506,2.38901 0.23279,3.58658c0.02987,0.41519 0.61545,0.41626 0.64665,0m-17.45583,-0.0984c1.27437,0.09466 2.5426,0.27359 3.8207,0.30346c0.63465,0.0144 1.27677,0.05867 1.91035,0.012c0.63225,-0.048 1.24904,-0.17386 1.86955,-0.29146c0.38026,-0.07306 0.38026,-0.69598 0,-0.76905c-0.62158,-0.1176 -1.23704,-0.24106 -1.86955,-0.29039c-0.63225,-0.0504 -1.27677,-0.00347 -1.91035,0.01067c-1.27783,0.02987 -2.54634,0.20879 -3.8207,0.30346c-0.46426,0.0336 -0.46559,0.68745 0,0.72105m2.14075,3.44391c0.85918,0.06 1.71596,0.15706 2.5738,0.22666c0.42826,0.03467 0.85678,0.07066 1.28637,0.0816c0.45706,0.01067 0.85305,-0.12346 1.29223,-0.21466c0.37546,-0.07786 0.37679,-0.68158 0,-0.75945c-0.43786,-0.0912 -0.83518,-0.22666 -1.29223,-0.21466c-0.42959,0.01307 -0.85785,0.04667 -1.28637,0.0816c-0.85785,0.0696 -1.71462,0.16666 -2.5738,0.22666c-0.36719,0.0264 -0.36719,0.54585 0,0.57225m28.60595,-4.0079c-1.83115,-0.0624 -3.66231,-0.10906 -5.49346,-0.1536c-1.82742,-0.0432 -3.66711,-0.1752 -5.49346,-0.156c-0.95518,0.0096 -0.78958,1.52636 0.17626,1.30903q0.20879,-0.03227 0.39946,-0.11866c0.51465,-0.19066 0.51465,-0.85785 0,-1.04877q-0.19066,-0.0864 -0.39946,-0.11866l-0.17626,1.31037c1.82635,0.01787 3.66578,-0.11386 5.49346,-0.15706c1.83115,-0.04427 3.66231,-0.0912 5.49346,-0.1536c0.45839,-0.01547 0.45839,-0.69705 0,-0.71278m-3.82417,2.78633c-2.16341,-0.1296 -4.36896,-0.32399 -6.53504,-0.1776c-0.64558,0.0432 -0.63705,1.06557 0,1.00317c0.17866,-0.01787 0.35519,-0.048 0.53279,-0.0768c0.42106,-0.06826 0.42106,-0.78105 0,-0.84958c-0.1776,-0.02987 -0.35386,-0.05867 -0.53279,-0.0768c-0.63598,-0.06347 -0.64665,0.95864 0,1.00317c2.16581,0.14506 4.37136,-0.04907 6.53504,-0.17866c0.41519,-0.02507 0.41626,-0.62158 0,-0.64665m-2.29434,2.98899l-2.26181,-0.20879c-0.37546,-0.03467 -0.75358,-0.048 -1.13037,-0.0672c-0.39466,-0.0192 -0.81705,0.00827 -1.18797,0.14986c-0.50879,0.19546 -0.50985,0.84478 0,1.03917c0.37066,0.14266 0.79198,0.1704 1.18797,0.14986c0.37679,-0.0192 0.75465,-0.0312 1.13037,-0.06587q1.13011,-0.10586 2.26181,-0.20986c0.50505,-0.04667 0.50639,-0.74025 0,-0.78718"/>
 </g>
</svg>